<svg width="32" height="32" viewBox="0 0 32 32" fill="none" xmlns="http://www.w3.org/2000/svg">
<rect width="32" height="32" rx="8" fill="#7EE8FA"/>
<path d="M23.394 16.7059C22.6525 16.7059 21.9181 16.8519 21.233 17.1357C20.5479 17.4195 19.9253 17.8355 19.401 18.3599C18.8766 18.8842 18.4606 19.5068 18.1768 20.1919C17.8931 20.877 17.747 21.6114 17.747 22.3529C17.747 23.0945 17.8931 23.8288 18.1768 24.514C18.4606 25.1991 18.8766 25.8216 19.401 26.346C19.9253 26.8704 20.5479 27.2864 21.233 27.5701C21.9181 27.8539 22.6525 28 23.394 28C24.8917 28 26.3281 27.405 27.3871 26.346C28.4461 25.287 29.0411 23.8506 29.0411 22.3529C29.0411 20.8552 28.4461 19.4189 27.3871 18.3599C26.3281 17.3008 24.8917 16.7059 23.394 16.7059ZM8.72467 16.7059C7.97659 16.6956 7.23391 16.8341 6.53979 17.1133C5.84568 17.3924 5.21396 17.8068 4.68133 18.3322C4.1487 18.8576 3.72579 19.4836 3.43716 20.1738C3.14852 20.8641 2.99993 21.6048 3 22.3529C3.00007 23.1011 3.14881 23.8418 3.43757 24.532C3.72634 25.2222 4.14937 25.8481 4.6821 26.3734C5.21483 26.8987 5.84663 27.3129 6.5408 27.592C7.23497 27.871 7.97767 28.0093 8.72576 27.9989C10.2098 27.9782 11.626 27.3742 12.668 26.3174C13.7101 25.2606 14.2943 23.836 14.2941 22.3519C14.294 20.8677 13.7096 19.4433 12.6673 18.3867C11.625 17.3301 10.2087 16.7263 8.72467 16.7059ZM21.7064 9.64706C21.7064 11.1448 21.1115 12.5811 20.0524 13.6401C18.9934 14.6992 17.5571 15.2941 16.0594 15.2941C14.5617 15.2941 13.1253 14.6992 12.0663 13.6401C11.0073 12.5811 10.4123 11.1448 10.4123 9.64706C10.4123 8.14937 11.0073 6.71301 12.0663 5.65399C13.1253 4.59496 14.5617 4 16.0594 4C17.5571 4 18.9934 4.59496 20.0524 5.65399C21.1115 6.71301 21.7064 8.14937 21.7064 9.64706Z" fill="#000E2B"/>
</svg>
