<svg width="32" height="32" viewBox="0 0 32 32" fill="none" xmlns="http://www.w3.org/2000/svg">
<g clip-path="url(#clip0_19_800)">
<path d="M12.6321 14.0182C13.0381 13.7242 13.2321 13.2362 13.2321 12.5622C13.2464 12.2447 13.1796 11.9288 13.0381 11.6442C12.9112 11.4125 12.723 11.2201 12.4941 11.0882C12.256 10.9449 11.9925 10.8492 11.7181 10.8062C11.4194 10.7501 11.116 10.7226 10.8121 10.7242H7.51807V14.4622H11.0801C11.7061 14.4682 12.2261 14.3182 12.6321 14.0182ZM13.1881 17.3942C12.7261 17.0442 12.1141 16.8702 11.3501 16.8702H7.51807V21.2762H11.2741C11.6241 21.2762 11.9501 21.2442 12.2621 21.1762C12.5741 21.1082 12.8561 21.0002 13.0941 20.8382C13.3321 20.6822 13.5261 20.4702 13.6681 20.2002C13.8101 19.9302 13.8801 19.5822 13.8801 19.1622C13.8801 18.3382 13.6501 17.7502 13.1881 17.3942Z" fill="#7EE8FA"/>
<path d="M29 0H3C1.35 0 0 1.35 0 3V29C0 30.65 1.35 32 3 32H29C30.65 32 32 30.65 32 29V3C32 1.35 30.65 0 29 0ZM20.976 8.418H27.458V10H20.976V8.418ZM16.926 21.45C16.6256 22.0261 16.1931 22.5229 15.664 22.9C15.1124 23.2834 14.4967 23.5651 13.846 23.732C13.1648 23.9128 12.4628 24.0029 11.758 24H4.002V8.006H11.54C12.302 8.006 12.996 8.074 13.628 8.206C14.254 8.338 14.79 8.562 15.24 8.868C15.684 9.174 16.034 9.58 16.284 10.086C16.528 10.586 16.652 11.218 16.652 11.962C16.652 12.768 16.47 13.436 16.102 13.974C15.734 14.512 15.196 14.948 14.47 15.292C15.458 15.574 16.182 16.074 16.664 16.78C17.152 17.492 17.39 18.348 17.39 19.348C17.396 20.166 17.24 20.866 16.928 21.448L16.926 21.45ZM29.982 18.976H21.626C21.626 19.888 21.938 20.758 22.414 21.226C22.89 21.688 23.576 21.926 24.47 21.926C25.114 21.926 25.664 21.764 26.132 21.438C26.594 21.114 26.876 20.77 26.982 20.414H29.782C29.332 21.808 28.65 22.802 27.72 23.402C26.802 24.002 25.676 24.302 24.37 24.302C23.458 24.302 22.638 24.152 21.902 23.864C21.1966 23.5895 20.5592 23.1651 20.034 22.62C19.5171 22.0609 19.1172 21.404 18.858 20.688C18.5741 19.8965 18.4326 19.0609 18.44 18.22C18.44 17.352 18.584 16.544 18.866 15.794C19.1328 15.073 19.5444 14.4142 20.0755 13.8584C20.6066 13.3025 21.2459 12.8613 21.954 12.562C22.7173 12.242 23.5384 12.0827 24.366 12.094C25.348 12.094 26.204 12.282 26.94 12.668C27.672 13.05 28.272 13.562 28.746 14.206C29.22 14.85 29.552 15.582 29.764 16.406C29.97 17.218 30.038 18.076 29.982 18.976Z" fill="#7EE8FA"/>
<path d="M24.2679 14.4942C23.7619 14.4942 23.3359 14.5822 23.0059 14.7562C22.6759 14.9302 22.4059 15.1442 22.1999 15.3942C22.0032 15.6347 21.8582 15.9132 21.7739 16.2122C21.6974 16.46 21.6491 16.7156 21.6299 16.9742H26.8059C26.7319 16.1622 26.4499 15.5622 26.0739 15.1422C25.6859 14.7162 25.0499 14.4922 24.2679 14.4922V14.4942Z" fill="#7EE8FA"/>
</g>
<defs>
<clipPath id="clip0_19_800">
<rect width="32" height="32" rx="8" fill="white"/>
</clipPath>
</defs>
</svg>
