<svg width="40" height="40" viewBox="0 0 40 40" fill="none" xmlns="http://www.w3.org/2000/svg">
<path d="M4.58325 26.9048V8.33142H2.08325V26.9081L4.58325 26.9048ZM37.9166 26.9048V8.22309H35.4166V26.9064L37.9166 26.9048ZM33.4266 3.78142C31.5283 3.84809 29.0499 4.04309 27.1416 4.61476L27.8583 7.01142C29.4416 6.53809 31.6483 6.34476 33.5133 6.27976L33.4266 3.78142ZM27.1416 4.61476C25.4833 5.11142 23.6183 6.08309 22.1633 6.92476L23.4166 9.08809C24.8333 8.26809 26.4916 7.42142 27.8583 7.01142L27.1416 4.61476ZM6.55992 6.37309C8.16992 6.47142 9.99325 6.66309 11.3483 7.02142L11.9849 4.60309C10.3849 4.17976 8.35825 3.97809 6.71325 3.87642L6.55992 6.37309ZM11.3483 7.02142C12.9516 7.44476 14.9249 8.37142 16.5533 9.23142L17.7199 7.02142C16.0616 6.14309 13.8799 5.10476 11.9866 4.60476L11.3483 7.02142ZM23.2999 34.5498C24.9516 33.6698 26.9983 32.6998 28.6516 32.2631L28.0149 29.8464C26.0649 30.3598 23.8049 31.4481 22.1249 32.3448L23.2999 34.5498ZM28.6516 32.2631C29.9899 31.9098 31.7883 31.7164 33.3866 31.6164L33.2299 29.1214C31.5966 29.2248 29.5983 29.4264 28.0133 29.8448L28.6516 32.2631ZM17.8749 32.3431C16.1949 31.4481 13.9366 30.3598 11.9849 29.8448L11.3483 32.2614C13.0016 32.6998 15.0483 33.6698 16.6983 34.5498L17.8749 32.3431ZM11.9849 29.8448C10.4016 29.4281 8.40159 29.2248 6.76825 29.1214L6.61325 31.6164C8.21159 31.7164 10.0099 31.9098 11.3466 32.2631L11.9849 29.8448ZM35.4166 26.9064C35.4166 28.0498 34.4699 29.0448 33.2299 29.1214L33.3866 31.6164C35.8433 31.4631 37.9166 29.4648 37.9166 26.9048L35.4166 26.9064ZM37.9166 8.22309C37.9166 5.78309 35.9749 3.68976 33.4266 3.77809L33.5133 6.27976C34.5383 6.24309 35.4166 7.08476 35.4166 8.21976L37.9166 8.22309ZM2.08325 26.9048C2.08325 29.4648 4.15659 31.4648 6.61325 31.6198L6.76825 29.1214C5.52825 29.0448 4.58325 28.0464 4.58325 26.9048H2.08325ZM22.1249 32.3448C21.4703 32.6916 20.7408 32.873 19.9999 32.873C19.2591 32.873 18.5295 32.69 17.8749 32.3431L16.6999 34.5498C17.7163 35.0891 18.8493 35.3711 19.9999 35.3711C21.1505 35.3711 22.2836 35.0891 23.2999 34.5498L22.1249 32.3448ZM22.1633 6.92142C21.4909 7.31006 20.7314 7.52282 19.955 7.54001C19.1786 7.5572 18.4105 7.37826 17.7216 7.01976L16.5533 9.23142C17.6167 9.78798 18.8036 10.0649 20.0036 10.0395C21.2035 10.0142 22.3776 9.68573 23.4166 9.08476L22.1633 6.92142ZM4.58325 8.33142C4.58325 7.16976 5.50325 6.30809 6.55992 6.37309L6.71325 3.87642C4.11659 3.71809 2.08325 5.83476 2.08325 8.33142H4.58325Z" fill="white"/>
<path opacity="0.5" d="M20 9.75635V34.9997" stroke="white" stroke-width="2"/>
<path opacity="0.5" d="M8.33325 15L14.9999 16.6667M8.33325 21.6667L14.9999 23.3333M31.6666 21.6667L24.9999 23.3333" stroke="white" stroke-width="2" stroke-linecap="round"/>
<path d="M31.6667 9.1665V15.8498C31.6667 16.3098 31.6667 16.5398 31.5083 16.6332C31.35 16.7248 31.135 16.6215 30.7017 16.4165L28.6317 15.4332C28.485 15.3632 28.4117 15.3298 28.3333 15.3298C28.255 15.3298 28.1817 15.3632 28.035 15.4332L25.965 16.4165C25.5317 16.6215 25.315 16.7248 25.1583 16.6332C25 16.5382 25 16.3082 25 15.8498V11.5832" stroke="white" stroke-width="2" stroke-linecap="round"/>
</svg>
