<svg width="40" height="40" viewBox="0 0 40 40" fill="none" xmlns="http://www.w3.org/2000/svg">
<path d="M21.8739 5.68132C21.1864 5.61904 20.6249 6.18464 20.6249 6.875C20.6249 7.56536 21.1867 8.11773 21.8729 8.1929C27.1022 8.76569 31.2342 12.8977 31.807 18.127C31.8821 18.8132 32.4345 19.375 33.1249 19.375C33.8152 19.375 34.3808 18.8135 34.3186 18.126C33.7221 11.5412 28.4577 6.27774 21.8739 5.68132ZM21.8711 10.7138C21.1877 10.6156 20.6249 11.1846 20.6249 11.875C20.6249 12.5654 21.1901 13.1119 21.8671 13.247C24.3317 13.7389 26.261 15.6682 26.7528 18.1328C26.888 18.8098 27.4345 19.375 28.1249 19.375C28.8152 19.375 29.3843 18.8121 29.2861 18.1288C28.7365 14.3037 25.6962 11.2634 21.8711 10.7138ZM10.7605 11.5815C10.2723 11.1151 9.50104 11.1238 9.02363 11.6012C3.68613 16.9387 3.68613 25.6387 9.02363 30.9762C14.3611 36.3137 23.0611 36.3137 28.3986 30.9762C28.876 30.4988 28.8848 29.7276 28.4184 29.2394L28.3986 29.2187L21.5236 22.3437C22.8024 21.9525 23.7499 20.7862 23.7499 19.375C23.7499 17.6512 22.3486 16.25 20.6249 16.25C19.2136 16.25 18.0461 17.1975 17.6561 18.4762L10.7811 11.6012L10.7605 11.5815ZM10.0786 14.4537L25.5461 29.9212C21.1474 33.4125 14.8536 33.2912 10.7811 29.2187C6.70863 25.1462 6.58738 18.8525 10.0774 14.4525L10.0786 14.4537Z" fill="white"/>
</svg>
