<svg width="32" height="32" viewBox="0 0 32 32" fill="none" xmlns="http://www.w3.org/2000/svg">
<g clip-path="url(#clip0_68_165)">
<path fill-rule="evenodd" clip-rule="evenodd" d="M10.0481 19.1627L0 9.31875V5.99862L11.962 17.8576C13.6519 19.238 11.8906 21.4753 10.0481 19.1627ZM24.7098 16.7829C27.4347 12.1425 29.9226 5.97563 31.3862 0H27.661C26.9171 6.97437 25.1827 11.0903 23.8216 17.1229C23.3946 17.1842 22.9611 17.1842 22.5341 17.1229C21.1729 11.0904 19.4386 6.97437 18.6947 0H14.9694C16.4331 5.97563 18.9209 12.1425 21.6459 16.7829C18.1263 13.8455 12.9119 4.03931 11.9705 0H10.5977C11.6769 4.39025 17.1114 12.4412 20.2586 16.4767C15.4616 11.5757 11.1197 5.19312 9.51375 0H0V3.40694L14.6997 17.9378L19.7184 27.4325C21.6875 31.4572 16.875 28.6239 8.51094 23.9401L0 15.5452V32H32V9.26713C30.08 12.1229 28.3857 13.9788 26.0971 16.4768C27.754 14.3523 30.0445 11.1149 32 7.88469V5.98581C29.8477 10.2769 26.8898 15.0596 24.7097 16.7829M26.3982 19.2216L20.1706 19.2253L21.0287 22.9825L25.5635 22.9977L26.3982 19.2216Z" fill="#7EE8FA"/>
</g>
<defs>
<clipPath id="clip0_68_165">
<rect width="32" height="32" rx="8" fill="white"/>
</clipPath>
</defs>
</svg>
