<svg width="32" height="32" viewBox="0 0 32 32" fill="none" xmlns="http://www.w3.org/2000/svg">
<rect width="32" height="32" rx="8" fill="#7EE8FA"/>
<path d="M11.2522 2H14.2598V3.25766H12.5099V4.51532H14.2598V5.77297H11.2522V2ZM14.8607 2H17.8695V3.09433H16.1195V3.31249H17.8695V5.82781H14.8607V4.67981H16.6107V4.46048H14.8607V2ZM18.4715 2H21.478V3.09433H19.728V3.31249H21.478V5.82781H18.4715V4.67981H20.2215V4.46048H18.4715V2Z" fill="#000E2B"/>
<path fill-rule="evenodd" clip-rule="evenodd" d="M16.4894 30.0001L8.38815 27.7508L6 7.50342H26.9999L24.6129 27.7484L16.4894 30.0001ZM10.7215 16.6687L10.9443 19.1513H19.5507L19.2626 22.3713L16.4929 23.1203H16.4906L13.7256 22.3736L13.5483 20.3938H11.0551L11.4028 24.2928L16.4894 25.7045L21.5842 24.2928L22.2049 17.3349L22.2656 16.6687L22.7136 11.6416H10.2746L10.501 14.1254H19.9929L19.7666 16.6687H10.7215Z" fill="#000E2B"/>
</svg>
