<svg width="32" height="32" viewBox="0 0 32 32" fill="none" xmlns="http://www.w3.org/2000/svg">
<rect width="32" height="32" rx="8" fill="#7EE8FA"/>
<path fill-rule="evenodd" clip-rule="evenodd" d="M11.556 12.5558C11.1038 12.5558 10.6559 12.6449 10.2381 12.818C9.82024 12.9911 9.44057 13.2448 9.12077 13.5646C8.80096 13.8844 8.54728 14.264 8.3742 14.6819C8.20112 15.0997 8.11204 15.5476 8.11204 15.9998C8.11204 16.4521 8.20112 16.9 8.3742 17.3178C8.54728 17.7356 8.80096 18.1153 9.12077 18.4351C9.44057 18.7549 9.82024 19.0086 10.2381 19.1817C10.6559 19.3548 11.1038 19.4438 11.556 19.4438H15V16.0692C14.9995 16.023 14.9995 15.9767 15 15.9305V12.5558H11.556ZM15 10.5558H11.556C10.6425 10.5558 9.7663 10.1929 9.1203 9.54692C8.4743 8.90092 8.11138 8.02475 8.11138 7.11117C8.11138 6.19759 8.4743 5.32142 9.1203 4.67542C9.7663 4.02942 10.6425 3.6665 11.556 3.6665H15V10.5558ZM17 3.6665V10.5558H20.444C21.3459 10.5381 22.2048 10.1674 22.8363 9.52331C23.4679 8.87924 23.8216 8.01319 23.8216 7.11117C23.8216 6.20915 23.4679 5.3431 22.8363 4.69903C22.2048 4.05496 21.3459 3.68425 20.444 3.6665H17ZM20.444 12.5545C19.54 12.5544 18.6722 12.9097 18.0279 13.5438C17.3836 14.1779 17.0144 15.0399 17 15.9438V16.0545C17.0111 16.7332 17.2224 17.3934 17.6075 17.9524C17.9926 18.5113 18.5342 18.944 19.1644 19.1961C19.7946 19.4482 20.4853 19.5085 21.1496 19.3694C21.8139 19.2302 22.4224 18.8979 22.8984 18.4141C23.3745 17.9303 23.697 17.3166 23.8254 16.6501C23.9538 15.9836 23.8824 15.294 23.6202 14.6679C23.3579 14.0419 22.9166 13.5073 22.3515 13.1313C21.7864 12.7552 21.1228 12.5546 20.444 12.5545ZM11.556 21.4438C10.8746 21.4436 10.2083 21.6454 9.64156 22.0238C9.0748 22.4022 8.63299 22.9402 8.37202 23.5698C8.11105 24.1993 8.04263 24.8921 8.17542 25.5605C8.3082 26.2289 8.63623 26.8429 9.11802 27.3249C9.59981 27.8069 10.2137 28.1352 10.8821 28.2682C11.5504 28.4013 12.2432 28.3331 12.8729 28.0724C13.5025 27.8116 14.0407 27.37 14.4193 26.8034C14.7979 26.2368 15 25.5707 15 24.8892V21.4438H11.556Z" fill="#080C20"/>
</svg>
