<svg width="32" height="32" viewBox="0 0 32 32" fill="none" xmlns="http://www.w3.org/2000/svg">
<rect width="32" height="32" rx="8" fill="#7EE8FA"/>
<path d="M15.7061 4C13.3301 4 11.422 4.02282 11.4345 4.05364C11.4459 4.07646 13.3837 7.47846 15.7415 11.6086L20.0325 19.111H24.3235C26.6984 19.111 28.6066 19.0882 28.594 19.0573C28.5883 19.0345 26.6448 15.6325 24.2859 11.5024L19.9949 4H15.7061ZM10.2739 5.97432C8.88193 8.37174 7.50103 10.7756 6.13124 13.1857L2 20.4143L4.15692 24.178L6.30813 27.9407L10.4394 20.711L14.5683 13.487L12.4228 9.73581C11.2439 7.67361 10.2796 5.98117 10.2739 5.97432ZM12.8519 20.4143L12.6203 20.8114C12.4902 21.0374 11.5247 22.7195 10.4748 24.5626C9.83338 25.695 9.18744 26.8249 8.53695 27.9521C8.52554 27.9817 12.2345 28 16.7789 28H25.0459L27.0956 24.3971C28.2277 22.4183 29.2068 20.711 29.2708 20.6049L29.3894 20.4143H21.1167H12.8519Z" fill="#000E2B"/>
</svg>
