<svg width="32" height="32" viewBox="0 0 32 32" fill="none" xmlns="http://www.w3.org/2000/svg">
<g clip-path="url(#clip0_33_189)">
<rect width="32" height="32" rx="8" fill="#7EE8FA"/>
<mask id="mask0_33_189" style="mask-type:luminance" maskUnits="userSpaceOnUse" x="0" y="0" width="32" height="32">
<path d="M0 0H32V32H0V0Z" fill="white"/>
</mask>
<g mask="url(#mask0_33_189)">
<path d="M8.42676 2H9.68909V3.24717H10.8441V2H12.1064V5.77533H10.8441V4.51183H9.68909V5.77533H8.42792L8.42676 2ZM13.7654 3.25183H12.6548V2H16.1396V3.25183H15.0278V5.77533H13.7654V3.25183ZM16.6926 2H18.0086L18.8183 3.3265L19.6268 2H20.9428V5.77533H19.6863V3.904L18.8183 5.24683H18.7961L17.9269 3.90517V5.77533H16.6926V2ZM21.5704 2H22.8339V4.52817H24.6073V5.7765H21.5704V2Z" fill="#000E2B"/>
<path fill-rule="evenodd" clip-rule="evenodd" d="M8.387 27.7509L6 7.50342H27L24.6118 27.7486L16.4883 30.0003L8.387 27.7509ZM13.2135 16.6676L12.9872 14.1243H22.4897L22.7113 11.6416H10.2747L10.9443 19.1514H19.5508L19.2627 22.3714L16.493 23.1204H16.4907L13.7257 22.3738L13.5483 20.3939H11.054L11.4017 24.2929L16.4883 25.7046L21.5832 24.2929L22.2038 17.3349L22.2645 16.6688L13.2135 16.6676Z" fill="#000E2B"/>
</g>
</g>
<defs>
<clipPath id="clip0_33_189">
<rect width="32" height="32" rx="8" fill="white"/>
</clipPath>
</defs>
</svg>
