<svg width="32" height="32" viewBox="0 0 32 32" fill="none" xmlns="http://www.w3.org/2000/svg">
<path d="M2.66699 24.152V7.84799C2.66699 5.57866 2.66699 4.44399 3.38966 4.07199C4.11366 3.69866 5.03633 4.35999 6.88299 5.67866L8.99233 7.18533C9.81366 7.77199 10.2243 8.06532 10.4457 8.49466C10.667 8.92532 10.667 9.43066 10.667 10.44V21.56C10.667 22.5693 10.667 23.0747 10.4457 23.5053C10.2243 23.936 9.81366 24.2293 8.99233 24.816L6.88299 26.3227C5.03633 27.64 4.11366 28.3 3.38966 27.928C2.66699 27.5547 2.66699 26.4213 2.66699 24.152ZM29.3337 24.152V7.84799C29.3337 5.57866 29.3337 4.44399 28.611 4.07199C27.887 3.69866 26.9643 4.35999 25.1177 5.67866L23.0083 7.18533C22.187 7.77199 21.7763 8.06532 21.555 8.49466C21.3337 8.92532 21.3337 9.43066 21.3337 10.44V21.56C21.3337 22.5693 21.3337 23.0747 21.555 23.5053C21.7763 23.936 22.187 24.2293 23.0083 24.816L25.1163 26.3227C26.9643 27.64 27.887 28.3 28.6097 27.928C29.3337 27.5547 29.3337 26.4213 29.3337 24.152Z" stroke="white" stroke-width="2"/>
<path opacity="0.5" d="M16 18.6667V13.3333M16 7.99999V2.66666M16 29.3333V24" stroke="white" stroke-width="2" stroke-linecap="round"/>
<path d="M29 25.1834V8.87936C29 6.61003 29 5.47536 28.2773 5.10336C27.5533 4.73003 26.6307 5.39136 24.784 6.71003L22.6747 8.2167C21.8533 8.80336 21.4427 9.0967 21.2213 9.52603C21 9.9567 21 10.462 21 11.4714V22.5914C21 23.6007 21 24.106 21.2213 24.5367C21.4427 24.9674 21.8533 25.2607 22.6747 25.8474L24.7827 27.354C26.6307 28.6714 27.5533 29.3314 28.276 28.9594C29 28.586 29 27.4527 29 25.1834Z" fill="#D9D9D9" fill-opacity="0.5"/>
</svg>
