<svg width="32" height="32" viewBox="0 0 32 32" fill="none" xmlns="http://www.w3.org/2000/svg">
<g clip-path="url(#clip0_32_164)">
<path d="M13.88 12.6401C14.3466 14.1601 14.8266 15.6801 15.3066 17.2268H12.48C12.96 15.6801 13.4133 14.1601 13.88 12.6401Z" fill="#7EE8FA"/>
<path d="M24 0H8C5.87827 0 3.84344 0.842855 2.34315 2.34315C0.842855 3.84344 0 5.87827 0 8V24C0 26.1217 0.842855 28.1566 2.34315 29.6569C3.84344 31.1571 5.87827 32 8 32H24C26.1217 32 28.1566 31.1571 29.6569 29.6569C31.1571 28.1566 32 26.1217 32 24V8C32 5.87827 31.1571 3.84344 29.6569 2.34315C28.1566 0.842855 26.1217 0 24 0ZM19.984 23.648H17.488C17.3884 23.6618 17.2874 23.636 17.2067 23.5762C17.1259 23.5164 17.0718 23.4273 17.056 23.328C16.752 22.432 16.432 21.536 16.128 20.624C16.1184 20.5668 16.0974 20.5121 16.0663 20.4633C16.0351 20.4144 15.9945 20.3722 15.9467 20.3394C15.8989 20.3065 15.845 20.2836 15.7882 20.2721C15.7314 20.2605 15.6728 20.2605 15.616 20.272H11.36C11.3009 20.2581 11.2395 20.2567 11.1799 20.2681C11.1202 20.2795 11.0636 20.3033 11.0138 20.338C10.964 20.3728 10.922 20.4176 10.8907 20.4696C10.8594 20.5217 10.8394 20.5797 10.832 20.64C10.56 21.536 10.256 22.4 9.984 23.296C9.97639 23.3525 9.95724 23.4069 9.92773 23.4557C9.89822 23.5045 9.85899 23.5467 9.81248 23.5798C9.76596 23.6128 9.71315 23.6359 9.65733 23.6476C9.60151 23.6593 9.54387 23.6595 9.488 23.648H7.296C6.912 23.648 6.88 23.648 7.008 23.248L10.464 13.28C10.784 12.368 11.104 11.456 11.392 10.544C11.4735 10.274 11.5165 9.99396 11.52 9.712C11.52 9.376 11.648 9.296 11.952 9.312H15.008C15.232 9.312 15.344 9.312 15.424 9.616L19.36 20.704C19.664 21.568 19.968 22.416 20.256 23.264C20.384 23.616 20.368 23.648 19.984 23.648ZM24.88 23.376C24.88 23.648 24.768 23.728 24.512 23.728H22.208C21.888 23.728 21.808 23.6 21.808 23.312V13.264C21.808 12.944 21.904 12.816 22.24 12.832H24.496C24.752 12.832 24.88 12.832 24.88 13.184C24.8688 16.576 24.8688 19.9728 24.88 23.376ZM23.28 11.696C23.0507 11.7106 22.821 11.6756 22.6065 11.5934C22.392 11.5113 22.1976 11.3839 22.0367 11.22C21.8758 11.056 21.7521 10.8593 21.674 10.6433C21.5958 10.4273 21.5652 10.1969 21.584 9.968C21.5863 9.74049 21.6338 9.51571 21.7238 9.30677C21.8139 9.09783 21.9446 8.90892 22.1085 8.75104C22.2723 8.59317 22.4659 8.4695 22.678 8.38726C22.8902 8.30501 23.1166 8.26583 23.344 8.272C23.5653 8.27129 23.7844 8.31651 23.9874 8.4048C24.1903 8.49309 24.3728 8.62253 24.5231 8.78494C24.6735 8.94735 24.7886 9.13919 24.861 9.34833C24.9334 9.55748 24.9617 9.77938 24.944 10C24.9571 10.2181 24.9254 10.4365 24.8509 10.6418C24.7764 10.8472 24.6606 11.0351 24.5107 11.194C24.3608 11.3529 24.18 11.4794 23.9793 11.5657C23.7787 11.6521 23.5624 11.6964 23.344 11.696H23.28Z" fill="#7EE8FA"/>
<path d="M15.3066 17.2268H12.48C12.96 15.6801 13.4133 14.1601 13.8133 12.6401C14.3466 14.1601 14.8266 15.6801 15.3066 17.2268Z" fill="#7EE8FA"/>
</g>
<defs>
<clipPath id="clip0_32_164">
<rect width="32" height="32" fill="white"/>
</clipPath>
</defs>
</svg>
