<svg width="32" height="32" viewBox="0 0 32 32" fill="none" xmlns="http://www.w3.org/2000/svg">
<g clip-path="url(#clip0_33_168)">
<path d="M5.66667 0.399902C2.53333 0.399902 0 2.93324 0 6.06657V25.9332C0 29.0666 2.53333 31.5999 5.66667 31.5999H26.3333C29.4667 31.5999 32 29.0666 32 25.9332V6.06657C32 2.93324 29.4667 0.399902 26.3333 0.399902H5.66667ZM20.7467 7.2399H23.4533C23.52 7.22657 23.5733 7.2799 23.5867 7.33324V20.0532C23.5867 20.2932 23.6 20.5599 23.6133 20.8532C23.64 21.1332 23.6533 21.3999 23.6667 21.6266C23.6667 21.7199 23.6267 21.7999 23.5333 21.8399C22.84 22.1332 22.1067 22.3466 21.36 22.4799C20.6933 22.5999 20 22.6666 19.3067 22.6666C18.32 22.6799 17.3333 22.4799 16.44 22.0666C15.6 21.6799 14.9067 21.0399 14.4267 20.2532C13.9333 19.4399 13.6933 18.4266 13.6933 17.2132C13.68 16.2266 13.9333 15.2532 14.4267 14.3999C14.9333 13.5332 15.6667 12.8132 16.5467 12.3332C17.48 11.8132 18.6 11.5599 19.92 11.5599C19.9867 11.5599 20.08 11.5599 20.2 11.5732C20.32 11.5866 20.4533 11.5866 20.6133 11.5999V7.38657C20.6133 7.29324 20.6533 7.2399 20.7467 7.2399ZM8.84 8.38657H11.44C11.52 8.37324 11.6 8.42657 11.6133 8.5199C11.6267 8.53324 11.6267 8.54657 11.6267 8.5599V22.2399C11.6267 22.3866 11.56 22.4532 11.44 22.4532H8.82667C8.70667 22.4532 8.65333 22.3866 8.65333 22.2399V8.5599C8.65333 8.4399 8.72 8.38657 8.84 8.38657ZM19.8133 14.0399C19.2933 14.0399 18.7733 14.1466 18.3067 14.3866C17.8533 14.6132 17.4667 14.9466 17.1733 15.3732C16.88 15.7999 16.7333 16.3732 16.7333 17.0666C16.72 17.5332 16.8 17.9999 16.96 18.4399C17.0933 18.7999 17.2933 19.1199 17.56 19.3866C17.8133 19.6266 18.12 19.8132 18.4667 19.9199C18.8267 20.0399 19.2 20.0932 19.5733 20.0932C19.7733 20.0932 19.96 20.0799 20.1333 20.0666C20.3067 20.0799 20.4667 20.0532 20.6133 19.9999V14.1332C20.3512 14.0711 20.0827 14.0398 19.8133 14.0399Z" fill="#7EE8FA"/>
</g>
<defs>
<clipPath id="clip0_33_168">
<rect width="32" height="32" fill="white"/>
</clipPath>
</defs>
</svg>
