<svg width="32" height="32" viewBox="0 0 32 32" fill="none" xmlns="http://www.w3.org/2000/svg">
<g clip-path="url(#clip0_33_177)">
<path d="M5.33333 0C3.91885 0 2.56229 0.561903 1.5621 1.5621C0.561903 2.56229 0 3.91885 0 5.33333V26.6667C0 28.0812 0.561903 29.4377 1.5621 30.4379C2.56229 31.4381 3.91885 32 5.33333 32H26.6667C28.0812 32 29.4377 31.4381 30.4379 30.4379C31.4381 29.4377 32 28.0812 32 26.6667V5.33333C32 3.91885 31.4381 2.56229 30.4379 1.5621C29.4377 0.561903 28.0812 0 26.6667 0H5.33333ZM18.3716 23.2089C19.6516 24.24 20.9292 24.7484 22.2044 24.7342C22.9867 24.7342 23.5864 24.5908 24.0036 24.304C24.1978 24.1779 24.3558 24.0034 24.4621 23.7977C24.5684 23.5919 24.6193 23.362 24.6098 23.1307C24.6125 22.8783 24.5598 22.6284 24.4553 22.3986C24.3509 22.1688 24.1973 21.9648 24.0053 21.8009C23.5881 21.437 22.7988 21.072 21.6373 20.7058C20.2424 20.3028 19.1668 19.7813 18.4107 19.1413C17.6687 18.5013 17.2907 17.6083 17.2764 16.4622C17.2764 15.3801 17.7458 14.4741 18.6844 13.744C19.597 13.0139 20.7644 12.6489 22.1867 12.6489C24.1683 12.6489 25.7582 13.1313 26.9564 14.096L25.5876 16.2276C25.0946 15.8443 24.5292 15.5649 23.9253 15.4062C23.3827 15.2244 22.8157 15.1255 22.2436 15.1129C21.568 15.1129 21.027 15.2367 20.6204 15.4844C20.2175 15.7333 20.016 16.0593 20.016 16.4622C20.016 16.9055 20.2631 17.2836 20.7573 17.5964C21.2551 17.8975 22.1025 18.2299 23.2996 18.5938C24.7467 19.024 25.7766 19.5976 26.3893 20.3147C27.0021 21.0317 27.3084 21.9443 27.3084 23.0524C27.3084 24.1867 26.8717 25.1644 25.9982 25.9858C25.1378 26.7941 23.8862 27.2178 22.2436 27.2569C20.0924 27.2569 18.2933 26.6116 16.8462 25.3209L18.3716 23.2089ZM8.54044 24.3431C8.95763 24.6039 9.45956 24.7342 10.0462 24.7342C10.659 24.7342 11.1674 24.5582 11.5716 24.2062C11.9745 23.8412 12.1766 23.2089 12.1778 22.3093V12.8836H14.8178V22.8178C14.7787 24.3561 14.3354 25.4643 13.488 26.1422C13.0243 26.5342 12.4852 26.8271 11.904 27.0027C11.365 27.1668 10.8052 27.2524 10.2418 27.2569C9.264 27.2569 8.39704 27.0874 7.64089 26.7484C6.83259 26.3846 6.15467 25.7393 5.60711 24.8124L7.44533 23.3067C7.78311 23.763 8.14815 24.1084 8.54044 24.3431Z" fill="#7EE8FA"/>
</g>
<defs>
<clipPath id="clip0_33_177">
<rect width="32" height="32" rx="6" fill="white"/>
</clipPath>
</defs>
</svg>
