<svg width="32" height="32" viewBox="0 0 32 32" fill="none" xmlns="http://www.w3.org/2000/svg">
<rect width="32" height="32" rx="8" fill="#7EE8FA"/>
<path d="M10.0481 9.39593C10.5676 8.67841 11.3483 8.19386 12.2218 8.04683C13.0953 7.8998 13.9917 8.10207 14.7174 8.61C15.4431 9.11793 15.94 9.89079 16.101 10.7619C16.2619 11.6329 16.074 12.5323 15.5777 13.2661L9.12449 22.4824C8.60798 23.2078 7.82574 23.6997 6.9482 23.8509C6.07065 24.002 5.16891 23.8003 4.43945 23.2896C3.70998 22.7789 3.21189 22.0006 3.0537 21.1243C2.89551 20.248 3.09003 19.3447 3.5949 18.6112L10.0481 9.39593ZM19.5986 9.49493C20.1122 8.76166 20.8959 8.26242 21.7775 8.10702C22.6591 7.95163 23.5664 8.15282 24.2996 8.66633C25.0329 9.17985 25.5322 9.96362 25.6875 10.8452C25.8429 11.7268 25.6417 12.6341 25.1282 13.3673L18.675 22.5826C18.1585 23.3079 17.3762 23.7998 16.4987 23.951C15.6211 24.1022 14.7194 23.9004 13.9899 23.3897C13.2605 22.879 12.7624 22.1007 12.6042 21.2244C12.446 20.3481 12.6405 19.4448 13.1454 18.7113L19.5986 9.49493ZM25.4849 23.7065C26.38 23.7065 27.2385 23.3509 27.8714 22.7179C28.5044 22.085 28.86 21.2265 28.86 20.3313C28.86 19.4362 28.5044 18.5777 27.8714 17.9448C27.2385 17.3118 26.38 16.9562 25.4849 16.9562C24.5897 16.9562 23.7313 17.3118 23.0983 17.9448C22.4653 18.5777 22.1097 19.4362 22.1097 20.3313C22.1097 21.2265 22.4653 22.085 23.0983 22.7179C23.7313 23.3509 24.5897 23.7065 25.4849 23.7065Z" fill="#000E2B"/>
</svg>
