<svg width="40" height="40" viewBox="0 0 40 40" fill="none" xmlns="http://www.w3.org/2000/svg">
<path fill-rule="evenodd" clip-rule="evenodd" d="M9.4585 12.6567C5.72016 13.9317 3.3335 15.8717 3.3335 18.0433C3.3335 21.8883 10.7952 25 20.0002 25C29.2052 25 36.6668 21.8867 36.6668 18.0433C36.6668 15.8717 34.2802 13.9317 30.5418 12.6567C30.3352 13.14 29.9902 13.63 29.4285 14.02C28.1152 14.9333 25.5002 15.8333 20.0002 15.8333C14.5002 15.8333 11.8868 14.9333 10.5718 14.02C10.0789 13.6804 9.69276 13.2075 9.4585 12.6567ZM20.0002 21.6667C20.4422 21.6667 20.8661 21.4911 21.1787 21.1785C21.4912 20.866 21.6668 20.442 21.6668 20C21.6668 19.558 21.4912 19.1341 21.1787 18.8215C20.8661 18.5089 20.4422 18.3333 20.0002 18.3333C19.5581 18.3333 19.1342 18.5089 18.8217 18.8215C18.5091 19.1341 18.3335 19.558 18.3335 20C18.3335 20.442 18.5091 20.866 18.8217 21.1785C19.1342 21.4911 19.5581 21.6667 20.0002 21.6667ZM13.3335 18.3333C13.3335 18.7754 13.1579 19.1993 12.8453 19.5119C12.5328 19.8244 12.1089 20 11.6668 20C11.2248 20 10.8009 19.8244 10.4883 19.5119C10.1758 19.1993 10.0002 18.7754 10.0002 18.3333C10.0002 17.8913 10.1758 17.4674 10.4883 17.1548C10.8009 16.8423 11.2248 16.6667 11.6668 16.6667C12.1089 16.6667 12.5328 16.8423 12.8453 17.1548C13.1579 17.4674 13.3335 17.8913 13.3335 18.3333ZM28.3335 20C28.7755 20 29.1994 19.8244 29.512 19.5119C29.8246 19.1993 30.0002 18.7754 30.0002 18.3333C30.0002 17.8913 29.8246 17.4674 29.512 17.1548C29.1994 16.8423 28.7755 16.6667 28.3335 16.6667C27.8915 16.6667 27.4675 16.8423 27.155 17.1548C26.8424 17.4674 26.6668 17.8913 26.6668 18.3333C26.6668 18.7754 26.8424 19.1993 27.155 19.5119C27.4675 19.8244 27.8915 20 28.3335 20Z" fill="#7EE8FA"/>
<path d="M20 28.75C20.3315 28.75 20.6495 28.8817 20.8839 29.1161C21.1183 29.3505 21.25 29.6685 21.25 30V35C21.25 35.3315 21.1183 35.6495 20.8839 35.8839C20.6495 36.1183 20.3315 36.25 20 36.25C19.6685 36.25 19.3505 36.1183 19.1161 35.8839C18.8817 35.6495 18.75 35.3315 18.75 35V30C18.75 29.6685 18.8817 29.3505 19.1161 29.1161C19.3505 28.8817 19.6685 28.75 20 28.75Z" fill="#7EE8FA"/>
<path opacity="0.5" d="M11.7583 11.675C12.0467 9.81588 12.9904 8.12119 14.4191 6.89705C15.8477 5.67291 17.667 5.00004 19.5483 5H20.4517C22.333 5.00004 24.1523 5.67291 25.5809 6.89705C27.0096 8.12119 27.9533 9.81588 28.2417 11.675C28.1888 11.7922 28.1053 11.8929 28 11.9667C27.31 12.4467 25.3167 13.3333 20 13.3333C14.6833 13.3333 12.69 12.4467 12 11.9667C11.8947 11.8929 11.8112 11.7922 11.7583 11.675ZM10 27.0833C10.3315 27.0833 10.6495 27.215 10.8839 27.4495C11.1183 27.6839 11.25 28.0018 11.25 28.3333V33.3333C11.25 33.6649 11.1183 33.9828 10.8839 34.2172C10.6495 34.4516 10.3315 34.5833 10 34.5833C9.66848 34.5833 9.35054 34.4516 9.11612 34.2172C8.8817 33.9828 8.75 33.6649 8.75 33.3333V28.3333C8.75 28.0018 8.8817 27.6839 9.11612 27.4495C9.35054 27.215 9.66848 27.0833 10 27.0833ZM31.25 28.3333C31.25 28.0018 31.1183 27.6839 30.8839 27.4495C30.6495 27.215 30.3315 27.0833 30 27.0833C29.6685 27.0833 29.3505 27.215 29.1161 27.4495C28.8817 27.6839 28.75 28.0018 28.75 28.3333V33.3333C28.75 33.6649 28.8817 33.9828 29.1161 34.2172C29.3505 34.4516 29.6685 34.5833 30 34.5833C30.3315 34.5833 30.6495 34.4516 30.8839 34.2172C31.1183 33.9828 31.25 33.6649 31.25 33.3333V28.3333Z" fill="#7EE8FA"/>
</svg>
