<svg width="32" height="32" viewBox="0 0 32 32" fill="none" xmlns="http://www.w3.org/2000/svg">
<g clip-path="url(#clip0_33_221)">
<path fill-rule="evenodd" clip-rule="evenodd" d="M26.56 -0.325017L26.8978 -0.12088L30.4178 2.18221C30.863 2.4738 31.2354 2.86028 31.5072 3.31284C31.779 3.76539 31.9432 4.27234 31.9876 4.79586L32 5.08549V26.9631C31.9999 27.7954 31.6968 28.6003 31.1452 29.2325C30.5936 29.8647 29.8299 30.2825 28.992 30.4107L28.7164 30.4421L8.22044 31.9897C7.67488 32.0309 7.127 31.9479 6.61946 31.7473C6.11191 31.5466 5.6584 31.2337 5.29422 30.833L5.104 30.6044L1.06667 25.3212C0.453087 24.5181 0.0877569 23.5588 0.014222 22.5575L0 22.1807V4.02293C6.00829e-05 3.19063 0.303236 2.38575 0.854819 1.75355C1.4064 1.12135 2.17006 0.703455 3.008 0.57528L3.28356 0.543874L23.5289 -0.984538C24.583 -1.06422 25.6374 -0.834663 26.5582 -0.325017H26.56ZM28.4444 7.78115L8.88889 9.25722V28.4391L28.4444 26.9631V7.78115ZM23.1111 10.2587C23.5826 10.2587 24.0348 10.4425 24.3682 10.7697C24.7016 11.0969 24.8889 11.5407 24.8889 12.0035V24.2168C24.8889 24.6796 24.7016 25.1233 24.3682 25.4506C24.0348 25.7778 23.5826 25.9616 23.1111 25.9616H22.2222C21.9185 25.9617 21.6198 25.8854 21.3546 25.74C21.0895 25.5946 20.8667 25.385 20.7076 25.1311L16 17.6216V25.0892C16 25.5519 15.8127 25.9957 15.4793 26.3229C15.1459 26.6501 14.6937 26.834 14.2222 26.834C13.7507 26.834 13.2985 26.6501 12.9651 26.3229C12.6317 25.9957 12.4444 25.5519 12.4444 25.0892V12.8759C12.4444 12.4131 12.6317 11.9693 12.9651 11.6421C13.2985 11.3149 13.7507 11.1311 14.2222 11.1311H15.1111C15.4148 11.131 15.7135 11.2073 15.9787 11.3527C16.2438 11.4981 16.4666 11.7077 16.6258 11.9616L21.3333 19.4693V12.0035C21.3333 11.5407 21.5206 11.0969 21.854 10.7697C22.1874 10.4425 22.6396 10.2587 23.1111 10.2587ZM23.8009 2.49452L5.76889 3.85543L7.79022 5.83923L27.3422 4.36491L24.9244 2.78241C24.5933 2.56572 24.1977 2.46435 23.8009 2.49452Z" fill="#7EE8FA"/>
</g>
<defs>
<clipPath id="clip0_33_221">
<rect width="32" height="32" fill="white"/>
</clipPath>
</defs>
</svg>
