<svg width="32" height="32" viewBox="0 0 32 32" fill="none" xmlns="http://www.w3.org/2000/svg">
<g clip-path="url(#clip0_32_161)">
<path d="M13.997 13.4275C14.0244 13.9393 13.8582 14.4438 13.5275 14.8533C13.1967 15.2628 12.7222 15.5515 12.1865 15.6691C11.2412 15.928 10.2556 16.0363 9.27157 15.9894C9.01811 15.9894 9 15.8377 9 15.6691V11.3713C9 11.2533 9.12673 11.0511 9.19915 11.0511C10.2348 10.9435 11.2828 11.0062 12.2951 11.2365C12.8045 11.3664 13.251 11.6545 13.5605 12.053C13.87 12.4515 14.024 12.9364 13.997 13.4275Z" fill="#7EE8FA"/>
<path d="M24 0H8C5.87827 0 3.84344 0.842855 2.34315 2.34315C0.842855 3.84344 0 5.87827 0 8V24C0 26.1217 0.842855 28.1566 2.34315 29.6569C3.84344 31.1571 5.87827 32 8 32H24C26.1217 32 28.1566 31.1571 29.6569 29.6569C31.1571 28.1566 32 26.1217 32 24V8C32 5.87827 31.1571 3.84344 29.6569 2.34315C28.1566 0.842855 26.1217 0 24 0ZM14.4 17.6C13.5931 18.1142 12.6674 18.4117 11.712 18.464H9.568C9.12 18.464 9.12 18.464 9.12 18.896V22.608C9.12 22.928 9.024 23.024 8.704 23.024H6.592C6.288 23.024 6.208 22.912 6.208 22.624V9.136C6.208 8.816 6.208 8.72 6.608 8.72H11.616C12.5301 8.74477 13.4226 9.0037 14.208 9.472C14.8863 9.85422 15.4511 10.4096 15.8446 11.0814C16.2381 11.7532 16.4463 12.5174 16.448 13.296C16.5406 14.1329 16.3979 14.979 16.0362 15.7393C15.6744 16.4996 15.1078 17.1439 14.4 17.6ZM23.872 22.88C22.4801 23.4201 20.9573 23.5261 19.504 23.184C19.0688 23.088 18.64 22.96 18.224 22.8C18.1597 22.7698 18.1031 22.7253 18.0588 22.6698C18.0144 22.6143 17.9833 22.5494 17.968 22.48V20.064C18.48 20.256 18.96 20.48 19.456 20.64C20.2873 20.9057 21.1674 20.9822 22.032 20.864C22.2032 20.832 22.3712 20.7792 22.528 20.704C22.6218 20.6629 22.7033 20.5983 22.7646 20.5163C22.8259 20.4343 22.8649 20.3378 22.8778 20.2363C22.8907 20.1347 22.877 20.0316 22.8382 19.9369C22.7993 19.8422 22.7365 19.7592 22.656 19.696C22.29 19.4426 21.8985 19.2281 21.488 19.056C20.832 18.736 20.16 18.48 19.536 18.112C18.9726 17.8379 18.5126 17.3894 18.2244 16.8331C17.9361 16.2768 17.835 15.6424 17.936 15.024C18.0174 14.4289 18.2646 13.8687 18.6494 13.4075C19.0342 12.9463 19.5411 12.6027 20.112 12.416C21.1411 12.0687 22.239 11.9753 23.312 12.144C23.824 12.144 24.32 12.336 24.832 12.432C25.104 12.432 25.2 12.656 25.184 12.928V14.8C25.184 15.152 25.104 15.184 24.784 15.056C23.7847 14.5933 22.6801 14.4056 21.584 14.512C21.4287 14.5301 21.2774 14.5733 21.136 14.64C21.04 14.6777 20.9555 14.7398 20.8909 14.8202C20.8263 14.9005 20.7839 14.9964 20.7677 15.0982C20.7515 15.2001 20.7622 15.3044 20.7988 15.4008C20.8353 15.4972 20.8964 15.5824 20.976 15.648C21.4384 15.9552 21.9248 16.224 22.432 16.448C23.04 16.752 23.68 16.992 24.272 17.328C24.8092 17.5724 25.2542 17.9822 25.542 18.4974C25.8299 19.0127 25.9455 19.6064 25.872 20.192C25.8214 20.7762 25.6047 21.3337 25.2475 21.7986C24.8903 22.2636 24.4074 22.6166 23.856 22.816L23.872 22.88Z" fill="#7EE8FA"/>
</g>
<defs>
<clipPath id="clip0_32_161">
<rect width="32" height="32" fill="white"/>
</clipPath>
</defs>
</svg>
