<svg width="40" height="40" viewBox="0 0 40 40" fill="none" xmlns="http://www.w3.org/2000/svg">
<path d="M37.8 15.8234C37.8 16.0612 37.7211 16.2612 37.5634 16.4234C37.4034 16.5856 37.2045 16.6667 36.9667 16.6667C36.7289 16.6667 36.5306 16.5873 36.3717 16.4284C36.2128 16.2695 36.1334 16.0712 36.1334 15.8334C36.1334 12.6045 35.0011 9.85841 32.7367 7.59507C30.4722 5.33174 27.7261 4.19952 24.4984 4.19841C24.2617 4.19841 24.0634 4.11896 23.9034 3.96007C23.7434 3.80118 23.6639 3.60285 23.665 3.36507C23.6661 3.1273 23.7456 2.92952 23.9034 2.77174C24.0611 2.61397 24.2595 2.53397 24.4984 2.53174C26.3406 2.53174 28.07 2.87952 29.6867 3.57508C31.3034 4.27063 32.7117 5.2173 33.9117 6.41508C35.1117 7.61285 36.06 9.02008 36.7567 10.6367C37.4534 12.2534 37.8011 13.9823 37.8 15.8234ZM32.1584 15.8234C32.1584 16.0612 32.0789 16.2612 31.92 16.4234C31.7611 16.5856 31.5634 16.6667 31.3267 16.6667C31.09 16.6667 30.8922 16.5873 30.7334 16.4284C30.5745 16.2695 30.4945 16.0712 30.4934 15.8334C30.4934 14.1667 29.9111 12.7512 28.7467 11.5867C27.5822 10.4223 26.1667 9.84007 24.5 9.84007C24.2634 9.84007 24.065 9.76008 23.905 9.60008C23.745 9.44008 23.6656 9.2423 23.6667 9.00674C23.6678 8.77119 23.7473 8.57286 23.905 8.41174C24.065 8.25285 24.2634 8.17341 24.5 8.17341C26.6345 8.17896 28.4434 8.92174 29.9267 10.4017C31.41 11.8817 32.1528 13.689 32.1584 15.8234ZM35.8617 29.7884C35.8617 30.1195 35.8056 30.4401 35.6934 30.7501C35.5811 31.0601 35.4034 31.339 35.16 31.5867L29.2434 37.5034C28.9956 37.7445 28.7167 37.9223 28.4067 38.0367C28.0978 38.149 27.7772 38.2051 27.445 38.2051C27.1084 38.2051 26.7917 38.1484 26.495 38.0351C26.1984 37.9217 25.9295 37.7445 25.6884 37.5034L21.0384 32.8534C20.5495 32.3645 20.3034 31.7701 20.3 31.0701C20.2967 30.3712 20.5395 29.7773 21.0284 29.2884L23.465 26.8517L21.1117 24.5001L18.6767 26.9351C18.1878 27.4251 17.5967 27.6701 16.9034 27.6701C16.2111 27.6701 15.6206 27.4256 15.1317 26.9367L13.3984 25.2034C12.9084 24.7134 12.6634 24.1256 12.6634 23.4401C12.6634 22.7556 12.9078 22.169 13.3967 21.6801L15.8334 19.2434L13.48 16.8917L11.045 19.3267C10.5561 19.8156 9.96392 20.0601 9.26836 20.0601C8.5728 20.0601 7.98003 19.8156 7.49003 19.3267L2.84003 14.6767C2.59225 14.429 2.40614 14.1556 2.28169 13.8567C2.15725 13.5579 2.09558 13.2423 2.09669 12.9101C2.0978 12.5779 2.15447 12.259 2.26669 11.9534C2.37892 11.6479 2.55947 11.3706 2.80836 11.1217L8.72503 5.20507C8.96614 4.9573 9.24003 4.77841 9.54669 4.66841C9.85336 4.55841 10.1756 4.50341 10.5134 4.50341C10.8445 4.50341 11.165 4.55841 11.475 4.66841C11.785 4.77841 12.0639 4.9573 12.3117 5.20507L16.9617 9.85508C17.4506 10.344 17.695 10.9367 17.695 11.6334C17.695 12.3301 17.4506 12.9223 16.9617 13.4101L14.5267 15.8467L16.8784 18.1984L19.3134 15.7634C19.8023 15.2745 20.395 15.0312 21.0917 15.0334C21.7872 15.0367 22.3795 15.2829 22.8684 15.7717L24.56 17.4651C25.05 17.954 25.3 18.5462 25.31 19.2417C25.32 19.9373 25.0811 20.5295 24.5934 21.0184L22.1567 23.4551L24.51 25.8067L26.945 23.3717C27.4339 22.8829 28.0284 22.6395 28.7284 22.6417C29.4272 22.6451 30.0211 22.8917 30.51 23.3817L35.16 28.0317C35.4022 28.2729 35.58 28.5417 35.6934 28.8384C35.8056 29.134 35.8617 29.4506 35.8617 29.7884ZM34.045 30.3334C34.195 30.1834 34.27 30.0017 34.27 29.7884C34.27 29.5751 34.195 29.3934 34.045 29.2434L32.1984 27.3967L25.0967 34.5001L26.9417 36.3467C27.0917 36.4956 27.2734 36.5701 27.4867 36.5701C27.7 36.5701 27.8817 36.4956 28.0317 36.3467L34.045 30.3334ZM31.1117 26.3434L29.2667 24.4967C29.1167 24.3467 28.935 24.2717 28.7217 24.2717C28.5084 24.2717 28.3267 24.3467 28.1767 24.4967L22.1634 30.5101C22.0145 30.659 21.94 30.8406 21.94 31.0551C21.94 31.2695 22.0145 31.4506 22.1634 31.5984L24.01 33.4451L31.1117 26.3434ZM23.445 19.7984C23.595 19.6484 23.67 19.4667 23.67 19.2534C23.67 19.039 23.595 18.8573 23.445 18.7084L21.625 16.8884C21.4761 16.7384 21.2945 16.6634 21.08 16.6634C20.8667 16.6634 20.685 16.7384 20.535 16.8884L14.5234 22.9001C14.3734 23.0501 14.2984 23.2317 14.2984 23.4451C14.2984 23.6584 14.3734 23.8401 14.5234 23.9901L16.3434 25.8101C16.4934 25.9601 16.675 26.0351 16.8884 26.0351C17.1017 26.0351 17.2834 25.9601 17.4334 25.8101L23.445 19.7984ZM15.805 12.1884C15.9539 12.0395 16.0284 11.8579 16.0284 11.6434C16.0284 11.429 15.9539 11.2473 15.805 11.0984L13.9584 9.25341L6.85669 16.3551L8.70169 18.2017C8.85169 18.3517 9.03336 18.4267 9.24669 18.4267C9.46114 18.4267 9.6428 18.3517 9.79169 18.2017L15.805 12.1884ZM12.905 8.16674L11.0584 6.32008C10.9084 6.17119 10.7267 6.09674 10.5134 6.09674C10.3 6.09674 10.1184 6.17119 9.96836 6.32008L3.95503 12.3334C3.80614 12.4823 3.73169 12.664 3.73169 12.8784C3.73169 13.0917 3.80614 13.2734 3.95503 13.4234L5.80169 15.2701L12.905 8.16674Z" fill="white"/>
</svg>
