<svg width="32" height="32" viewBox="0 0 32 32" fill="none" xmlns="http://www.w3.org/2000/svg">
<g clip-path="url(#clip0_240_885)">
<path d="M16 32C11.7565 32 7.68687 30.3143 4.68629 27.3137C1.68571 24.3131 0 20.2435 0 16C0 11.7565 1.68571 7.68687 4.68629 4.68629C7.68687 1.68571 11.7565 0 16 0C20.2435 0 24.3131 1.68571 27.3137 4.68629C30.3143 7.68687 32 11.7565 32 16C32 20.2435 30.3143 24.3131 27.3137 27.3137C24.3131 30.3143 20.2435 32 16 32ZM22.062 8C19.7388 8.00014 17.5107 8.92315 15.868 10.566L15.408 11.024C15.0947 11.3373 14.7933 11.664 14.504 12.004H11.3C11.0009 12.0048 10.707 12.0818 10.446 12.2277C10.1849 12.3736 9.96535 12.5837 9.808 12.838L8.096 15.614C8.03642 15.7119 7.99993 15.8221 7.9893 15.9362C7.97868 16.0503 7.9942 16.1653 8.03469 16.2725C8.07518 16.3797 8.13957 16.4762 8.22297 16.5548C8.30637 16.6334 8.40658 16.6919 8.516 16.726L11.62 17.68L14.32 20.38L15.276 23.486C15.3091 23.5958 15.3671 23.6966 15.4453 23.7805C15.5236 23.8643 15.6201 23.9291 15.7274 23.9697C15.8347 24.0103 15.95 24.0256 16.0641 24.0146C16.1783 24.0036 16.2885 23.9664 16.386 23.906L19.164 22.196C19.418 22.0384 19.6276 21.8187 19.7732 21.5577C19.9187 21.2967 19.9954 21.0029 19.996 20.704V17.494C20.336 17.206 20.6627 16.9047 20.976 16.59L21.436 16.13C23.0776 14.4874 23.9999 12.2603 24 9.938V9.752C24 9.28734 23.8154 8.84171 23.4869 8.51315C23.1583 8.18459 22.7127 8 22.248 8H22.062ZM11.848 22.288C12.003 21.9385 12.0272 21.5454 11.92 21.1784C11.8129 20.8114 11.5792 20.4943 11.2605 20.2831C10.9417 20.072 10.5585 19.9806 10.1788 20.025C9.79907 20.0695 9.44735 20.247 9.186 20.526C8.396 21.314 8.058 23.042 7.946 23.766C7.93893 23.805 7.94163 23.8451 7.95384 23.8828C7.96605 23.9205 7.98741 23.9546 8.016 23.982C8.04343 24.0106 8.07751 24.0319 8.1152 24.0442C8.15289 24.0564 8.19302 24.0591 8.232 24.052C8.956 23.94 10.684 23.602 11.472 22.814C11.6318 22.6661 11.7598 22.4871 11.848 22.288Z" fill="#7EE8FA"/>
</g>
<defs>
<clipPath id="clip0_240_885">
<rect width="32" height="32" fill="white"/>
</clipPath>
</defs>
</svg>
