<svg width="40" height="40" viewBox="0 0 40 40" fill="none" xmlns="http://www.w3.org/2000/svg">
<path fill-rule="evenodd" clip-rule="evenodd" d="M9.45825 12.6567C5.71992 13.9317 3.33325 15.8717 3.33325 18.0434C3.33325 21.8884 10.7949 25.0001 19.9999 25.0001C29.2049 25.0001 36.6666 21.8867 36.6666 18.0434C36.6666 15.8717 34.2799 13.9317 30.5416 12.6567C30.3349 13.1401 29.9899 13.6301 29.4283 14.0201C28.1149 14.9334 25.4999 15.8334 19.9999 15.8334C14.4999 15.8334 11.8866 14.9334 10.5716 14.0201C10.0787 13.6804 9.69252 13.2076 9.45825 12.6567ZM19.9999 21.6667C20.4419 21.6667 20.8659 21.4911 21.1784 21.1786C21.491 20.866 21.6666 20.4421 21.6666 20.0001C21.6666 19.558 21.491 19.1341 21.1784 18.8216C20.8659 18.509 20.4419 18.3334 19.9999 18.3334C19.5579 18.3334 19.134 18.509 18.8214 18.8216C18.5088 19.1341 18.3333 19.558 18.3333 20.0001C18.3333 20.4421 18.5088 20.866 18.8214 21.1786C19.134 21.4911 19.5579 21.6667 19.9999 21.6667ZM13.3333 18.3334C13.3333 18.7754 13.1577 19.1994 12.8451 19.5119C12.5325 19.8245 12.1086 20.0001 11.6666 20.0001C11.2246 20.0001 10.8006 19.8245 10.4881 19.5119C10.1755 19.1994 9.99992 18.7754 9.99992 18.3334C9.99992 17.8914 10.1755 17.4675 10.4881 17.1549C10.8006 16.8423 11.2246 16.6667 11.6666 16.6667C12.1086 16.6667 12.5325 16.8423 12.8451 17.1549C13.1577 17.4675 13.3333 17.8914 13.3333 18.3334ZM28.3333 20.0001C28.7753 20.0001 29.1992 19.8245 29.5118 19.5119C29.8243 19.1994 29.9999 18.7754 29.9999 18.3334C29.9999 17.8914 29.8243 17.4675 29.5118 17.1549C29.1992 16.8423 28.7753 16.6667 28.3333 16.6667C27.8912 16.6667 27.4673 16.8423 27.1547 17.1549C26.8422 17.4675 26.6666 17.8914 26.6666 18.3334C26.6666 18.7754 26.8422 19.1994 27.1547 19.5119C27.4673 19.8245 27.8912 20.0001 28.3333 20.0001Z" fill="white"/>
<path d="M20 28.75C20.3315 28.75 20.6495 28.8817 20.8839 29.1161C21.1183 29.3505 21.25 29.6685 21.25 30V35C21.25 35.3315 21.1183 35.6495 20.8839 35.8839C20.6495 36.1183 20.3315 36.25 20 36.25C19.6685 36.25 19.3505 36.1183 19.1161 35.8839C18.8817 35.6495 18.75 35.3315 18.75 35V30C18.75 29.6685 18.8817 29.3505 19.1161 29.1161C19.3505 28.8817 19.6685 28.75 20 28.75Z" fill="white"/>
<path opacity="0.5" d="M11.7583 11.675C12.0467 9.81588 12.9904 8.12119 14.4191 6.89705C15.8477 5.67291 17.667 5.00004 19.5483 5H20.4517C22.333 5.00004 24.1523 5.67291 25.5809 6.89705C27.0096 8.12119 27.9533 9.81588 28.2417 11.675C28.1888 11.7922 28.1053 11.8929 28 11.9667C27.31 12.4467 25.3167 13.3333 20 13.3333C14.6833 13.3333 12.69 12.4467 12 11.9667C11.8947 11.8929 11.8112 11.7922 11.7583 11.675ZM10 27.0833C10.3315 27.0833 10.6495 27.215 10.8839 27.4495C11.1183 27.6839 11.25 28.0018 11.25 28.3333V33.3333C11.25 33.6649 11.1183 33.9828 10.8839 34.2172C10.6495 34.4516 10.3315 34.5833 10 34.5833C9.66848 34.5833 9.35054 34.4516 9.11612 34.2172C8.8817 33.9828 8.75 33.6649 8.75 33.3333V28.3333C8.75 28.0018 8.8817 27.6839 9.11612 27.4495C9.35054 27.215 9.66848 27.0833 10 27.0833ZM31.25 28.3333C31.25 28.0018 31.1183 27.6839 30.8839 27.4495C30.6495 27.215 30.3315 27.0833 30 27.0833C29.6685 27.0833 29.3505 27.215 29.1161 27.4495C28.8817 27.6839 28.75 28.0018 28.75 28.3333V33.3333C28.75 33.6649 28.8817 33.9828 29.1161 34.2172C29.3505 34.4516 29.6685 34.5833 30 34.5833C30.3315 34.5833 30.6495 34.4516 30.8839 34.2172C31.1183 33.9828 31.25 33.6649 31.25 33.3333V28.3333Z" fill="white"/>
</svg>
