<svg width="32" height="32" viewBox="0 0 32 32" fill="none" xmlns="http://www.w3.org/2000/svg">
<rect width="32" height="32" rx="8" fill="#7EE8FA"/>
<path d="M7.88233 19.6925C7.88018 20.4719 7.56985 21.2188 7.01906 21.7703C6.46827 22.3217 5.72173 22.6329 4.94233 22.636C4.16253 22.6335 3.41539 22.3226 2.8641 21.7711C2.3128 21.2196 2.00215 20.4723 2 19.6925C2.00216 18.913 2.31292 18.1661 2.86431 17.6152C3.41571 17.0642 4.16285 16.754 4.94233 16.7525H7.88233V19.6925ZM9.36517 19.6925C9.36732 18.9132 9.67792 18.1665 10.2291 17.6156C10.7802 17.0647 11.5271 16.7543 12.3063 16.7525C13.0856 16.7543 13.8325 17.0647 14.3836 17.6156C14.9347 18.1665 15.2453 18.9132 15.2475 19.6925V27.0577C15.245 27.8371 14.9344 28.5839 14.3834 29.1351C13.8324 29.6863 13.0857 29.9972 12.3063 30C11.5269 29.9972 10.7803 29.6863 10.2293 29.1351C9.67825 28.5839 9.36763 27.8371 9.36517 27.0577V19.6925ZM12.3063 7.88233C11.5273 7.87957 10.781 7.56897 10.2301 7.01824C9.67914 6.46752 9.36824 5.72133 9.36517 4.94233C9.36763 4.16294 9.67825 3.41615 10.2293 2.86492C10.7803 2.31369 11.5269 2.00277 12.3063 2C13.0857 2.00277 13.8324 2.31369 14.3834 2.86492C14.9344 3.41615 15.245 4.16294 15.2475 4.94233V7.88233H12.3063ZM12.3063 9.36517C13.0855 9.36793 13.832 9.67869 14.383 10.2297C14.934 10.7806 15.2447 11.5271 15.2475 12.3063C15.2447 13.0855 14.934 13.832 14.383 14.383C13.832 14.934 13.0855 15.2447 12.3063 15.2475H4.94233C4.16294 15.245 3.41615 14.9344 2.86492 14.3834C2.31369 13.8324 2.00277 13.0857 2 12.3063C2.00277 11.5269 2.31369 10.7803 2.86492 10.2293C3.41615 9.67825 4.16294 9.36763 4.94233 9.36517H12.3063ZM24.1153 12.3063C24.1181 11.5269 24.429 10.7803 24.9803 10.2293C25.5315 9.67825 26.2783 9.36763 27.0577 9.36517C27.8371 9.36763 28.5839 9.67825 29.1351 10.2293C29.6863 10.7803 29.9972 11.5269 30 12.3063C29.9972 13.0857 29.6863 13.8324 29.1351 14.3834C28.5839 14.9344 27.8371 15.245 27.0577 15.2475H24.1153V12.3063ZM22.636 12.3063C22.6332 13.0859 22.3221 13.8328 21.7707 14.3838C21.2192 14.9349 20.4721 15.2453 19.6925 15.2475C18.9132 15.2453 18.1665 14.9347 17.6156 14.3836C17.0647 13.8325 16.7543 13.0856 16.7525 12.3063V4.94233C16.754 4.16285 17.0642 3.41571 17.6152 2.86431C18.1661 2.31292 18.913 2.00216 19.6925 2C20.4723 2.00215 21.2196 2.3128 21.7711 2.8641C22.3226 3.41539 22.6335 4.16253 22.636 4.94233V12.3063ZM19.6925 24.1153C20.4723 24.1175 21.2196 24.4281 21.7711 24.9794C22.3226 25.5307 22.6335 26.2779 22.636 27.0577C22.6335 27.8375 22.3226 28.5846 21.7711 29.1359C21.2196 29.6872 20.4723 29.9978 19.6925 30C18.913 29.9978 18.1661 29.6871 17.6152 29.1357C17.0642 28.5843 16.754 27.8371 16.7525 27.0577V24.1153H19.6925ZM19.6925 22.636C18.9128 22.6338 18.1657 22.3229 17.6148 21.7713C17.0638 21.2196 16.7537 20.4722 16.7525 19.6925C16.7543 18.9133 17.0647 18.1666 17.6156 17.6156C18.1666 17.0647 18.9133 16.7543 19.6925 16.7525H27.0577C27.8371 16.754 28.5843 17.0642 29.1357 17.6152C29.6871 18.1661 29.9978 18.913 30 19.6925C29.9978 20.4723 29.6872 21.2196 29.1359 21.7711C28.5846 22.3226 27.8375 22.6335 27.0577 22.636H19.6925Z" fill="#000E2B"/>
</svg>
