<svg width="32" height="32" viewBox="0 0 32 32" fill="none" xmlns="http://www.w3.org/2000/svg">
<path d="M15.9998 2.66666C19.0056 2.66666 21.8883 3.8607 24.0137 5.98611C26.1391 8.11153 27.3332 10.9942 27.3332 14C27.3332 22.6667 19.9998 30 15.9998 30C11.9998 30 4.6665 22.6667 4.6665 14C4.6665 10.9942 5.86055 8.11153 7.98596 5.98611C10.1114 3.8607 12.9941 2.66666 15.9998 2.66666ZM23.3332 16C22.4918 16 21.6598 16.1769 20.8913 16.5193C20.1227 16.8617 19.4348 17.3619 18.8721 17.9874C18.3094 18.613 17.8846 19.3499 17.6252 20.1503C17.3658 20.9507 17.2777 21.7967 17.3665 22.6333C17.5754 22.6555 17.7865 22.6667 17.9998 22.6667C18.8412 22.6667 19.6732 22.4898 20.4417 22.1474C21.2103 21.805 21.8982 21.3048 22.4609 20.6792C23.0236 20.0537 23.4484 19.3168 23.7078 18.5164C23.9672 17.716 24.0553 16.87 23.9665 16.0333C23.756 16.0122 23.5447 16.001 23.3332 16ZM8.6665 16C8.45317 16 8.24206 16.0111 8.03317 16.0333C7.93868 16.9232 8.04444 17.823 8.34271 18.6667C8.64098 19.5104 9.12421 20.2767 9.75699 20.9095C10.3898 21.5423 11.1561 22.0255 11.9998 22.3238C12.8435 22.6221 13.7433 22.7278 14.6332 22.6333C14.6554 22.4244 14.6665 22.2133 14.6665 22C14.6665 20.4087 14.0344 18.8826 12.9091 17.7574C11.7839 16.6321 10.2578 16 8.6665 16Z" fill="white"/>
</svg>
